<svg id="Layer_1" data-name="Layer 1" xmlns="http://www.w3.org/2000/svg" viewBox="0 0 358.4 409.6"><defs><style>.cls-1{fill:#d4652c;}</style></defs><title>Opdf</title><path class="cls-1" d="M437.2,426.79c-5.45-5.38-17.56-8.22-36-8.47A299.35,299.35,0,0,0,358,421.5c-7.07-4.09-14.36-8.52-20.08-13.87-15.38-14.36-28.23-34.31-36.23-56.23.52-2.06,1-3.85,1.38-5.69,0,0,8.67-49.23,6.37-65.87a19.06,19.06,0,0,0-1.12-4.71l-.75-1.94c-2.36-5.44-7-11.2-14.23-10.88l-4.25-.14h-.11c-8.09,0-14.67,4.13-16.4,10.31-5.25,19.37.17,48.36,10,85.9L280,364.49c-7,17.15-15.85,34.42-23.63,49.66l-1,2c-8.19,16-15.61,29.62-22.35,41.13l-7,3.68c-.5.26-12.41,6.56-15.21,8.26-23.7,14.15-39.41,30.21-42,43-.83,4.07-.21,9.28,4,11.69l6.73,3.38a20.24,20.24,0,0,0,9.14,2.2c16.88,0,36.48-21,63.47-68.14A632.24,632.24,0,0,1,350,438.05c23.7,13.35,52.86,22.61,71.26,22.61a33.09,33.09,0,0,0,8.37-.91,14.3,14.3,0,0,0,8.32-5.68c3.57-5.37,4.29-12.77,3.32-20.35-.28-2.25-2.08-5-4-6.93ZM185.06,516.62c3.08-8.42,15.26-25.06,33.28-39.82,1.13-.92,3.92-3.53,6.48-6-18.84,30.05-31.46,42-39.76,45.78ZM291.77,270.88c5.43,0,8.52,13.67,8.77,26.5s-2.74,21.82-6.46,28.48c-3.08-9.86-4.57-25.4-4.57-35.56,0,0-.23-19.42,2.26-19.42ZM259.94,446c3.78-6.77,7.71-13.91,11.73-21.47a409.74,409.74,0,0,0,20.6-44.94,148.26,148.26,0,0,0,34,42.2c1.67,1.42,3.45,2.84,5.31,4.27-27.29,5.39-50.87,12-71.63,19.94Zm172-1.54c-1.66,1-6.42,1.64-9.48,1.64-9.88,0-22.11-4.52-39.25-11.87,6.59-.48,12.63-.73,18-.73,9.91,0,12.85,0,22.54,2.43s9.81,7.49,8.15,8.53Zm29.81-173.69-57.14-57.14C392.18,201.18,367.6,191,350,191H158a32.09,32.09,0,0,0-32,32V568.6a32.09,32.09,0,0,0,32,32H452.4a32.09,32.09,0,0,0,32-32V325.4c0-17.6-10.18-42.18-22.63-54.63Zm-18.1,18.11a33.34,33.34,0,0,1,3.71,4.52H382V228a34.76,34.76,0,0,1,4.53,3.71ZM458.8,568.6a6.48,6.48,0,0,1-6.4,6.4H158a6.48,6.48,0,0,1-6.4-6.4V223a6.48,6.48,0,0,1,6.4-6.4H350a34.65,34.65,0,0,1,6.4.68V319H458.12a35.53,35.53,0,0,1,.68,6.4Zm0,0" transform="translate(-126 -191)"/></svg>